<svg xmlns="http://www.w3.org/2000/svg" viewBox="0 0 512 512">
  <defs>
    <linearGradient id="bg" x1="0" y1="0" x2="1" y2="1">
      <stop offset="0" stop-color="#FAF0DC"/>
      <stop offset="1" stop-color="#EDD4A0"/>
    </linearGradient>
    <linearGradient id="book" x1="0" y1="0" x2="0" y2="1">
      <stop offset="0" stop-color="#A06030"/>
      <stop offset="1" stop-color="#7A4418"/>
    </linearGradient>
  </defs>
  <rect width="512" height="512" fill="url(#bg)"/>
  <rect x="0" y="350" width="512" height="162" fill="#C8956A" opacity="0.30"/>
  <ellipse cx="128" cy="400" rx="78" ry="56" fill="#1E1E1E"/>
  <rect x="104" y="328" width="48" height="50" rx="8" fill="#EAB888"/>
  <circle cx="128" cy="290" r="66" fill="#EAB888"/>
  <ellipse cx="128" cy="252" rx="66" ry="50" fill="#8C8C8C"/>
  <ellipse cx="128" cy="244" rx="60" ry="38" fill="#7A7A7A"/>
  <ellipse cx="384" cy="400" rx="78" ry="56" fill="#5C8840"/>
  <rect x="360" y="328" width="48" height="50" rx="8" fill="#EAB888"/>
  <circle cx="384" cy="290" r="66" fill="#EAB888"/>
  <ellipse cx="384" cy="252" rx="66" ry="50" fill="#7A6450"/>
  <ellipse cx="384" cy="244" rx="60" ry="36" fill="#6A5440"/>
  <rect x="194" y="172" width="128" height="178" rx="10" fill="#6A3E14" opacity="0.25"/>
  <rect x="190" y="168" width="132" height="178" rx="10" fill="url(#book)"/>
  <rect x="198" y="176" width="116" height="162" rx="6" fill="#8B5228"/>
  <rect x="210" y="200" width="92" height="72" rx="5" fill="#6A3E14" opacity="0.40"/>
  <text x="256" y="248" font-family="'Hiragino Mincho Pro','Yu Mincho',Georgia,serif"
        font-size="26" fill="#FAF0DC" text-anchor="middle" font-weight="bold" letter-spacing="3">家計簿</text>
  <line x1="210" y1="292" x2="306" y2="292" stroke="#FAF0DC" stroke-width="3" opacity="0.45"/>
  <line x1="210" y1="312" x2="306" y2="312" stroke="#FAF0DC" stroke-width="3" opacity="0.45"/>
  <line x1="210" y1="332" x2="306" y2="332" stroke="#FAF0DC" stroke-width="3" opacity="0.45"/>
  <circle cx="428" cy="368" r="24" fill="#D4AF37"/>
  <circle cx="455" cy="385" r="19" fill="#C8A030"/>
  <circle cx="435" cy="405" r="16" fill="#B89020"/>
  <text x="428" y="376" font-family="sans-serif" font-size="22" text-anchor="middle"
        fill="#9A7818" font-weight="bold">¥</text>
</svg>
